<?xml version="1.0" encoding="iso-8859-1"?>
<!-- Uploaded to: SVG Repo, www.svgrepo.com, Generator: SVG Repo Mixer Tools -->
<svg fill="#000000" height="800px" width="800px" version="1.1" id="Layer_1" xmlns="http://www.w3.org/2000/svg" xmlns:xlink="http://www.w3.org/1999/xlink" 
	 viewBox="0 0 512.016 512.016" xml:space="preserve">
<g>
	<g>
		<path d="M501.032,45.31l-34.325-34.325c-14.646-14.646-38.415-14.646-53.061,0L335.909,88.7l-85.508,85.529
			c-2.968,2.968-7.575,3.929-12.086,2.323c-20.174-7.163-40.277-9.008-58.22-5.32l-58.323-58.323
			c-7.507-7.507-19.392-8.352-27.885-1.982l-85.333,64c-9.058,6.793-11.231,19.479-4.95,28.9l36.825,55.238
			c-2.678,2.204-5.269,4.539-7.753,7.023C-17.497,316.26-8.429,403.89,49.848,462.168c58.278,58.278,145.908,67.345,196.079,17.173
			c22.828-22.828,33.827-54.17,32.497-87.687c16.118-2.698,30.546-9.701,41.88-21.015c23.649-23.649,28.214-60.2,15.163-96.929
			c-1.605-4.509-0.635-9.14,2.343-12.119l85.485-85.506l77.735-77.713C515.677,83.724,515.677,59.956,501.032,45.31z
			 M50.298,196.952l54.387-40.79l36.132,36.132c-10.991,11.22-17.815,25.432-20.463,41.297c-14.63-0.58-28.845,1.19-42.118,5.267
			L50.298,196.952z M393.125,145.916l-85.487,85.508c-14.809,14.809-19.412,36.8-12.372,56.582
			c7.978,22.452,5.566,41.765-5.12,52.451c-7.489,7.477-19.118,10.937-33.661,9.475c-14.418-1.45-26.056,11.59-22.982,25.751
			c6.319,29.115-0.164,55.906-17.746,73.489c-31.967,31.967-92.904,25.662-135.739-17.173
			c-42.835-42.835-49.141-103.772-17.173-135.74c17.582-17.582,44.374-24.065,73.489-17.746
			c14.161,3.074,27.201-8.563,25.751-22.982c-1.464-14.564,1.99-26.189,9.462-33.648c10.686-10.699,29.995-13.11,52.477-5.127
			c19.77,7.035,41.738,2.453,56.549-12.357l85.506-85.527l74.097-74.076l27.046,27.046L393.125,145.916z"/>
	</g>
</g>
</svg>