<!DOCTYPE svg PUBLIC "-//W3C//DTD SVG 1.1//EN" "http://www.w3.org/Graphics/SVG/1.1/DTD/svg11.dtd">
<!-- Uploaded to: SVG Repo, www.svgrepo.com, Transformed by: SVG Repo Mixer Tools -->
<svg fill="#ffffff" height="800px" width="800px" version="1.1" id="Layer_1" xmlns="http://www.w3.org/2000/svg" xmlns:xlink="http://www.w3.org/1999/xlink" viewBox="0 0 511.995 511.995" xml:space="preserve" stroke="#ffffff">
<g id="SVGRepo_bgCarrier" stroke-width="0"/>
<g id="SVGRepo_tracerCarrier" stroke-linecap="round" stroke-linejoin="round"/>
<g id="SVGRepo_iconCarrier"> <g> <g> <path d="M500.965,98.363c7.104-7.083,11.029-16.512,11.029-26.539s-3.904-19.456-11.008-26.539L466.661,10.96 c-14.592-14.613-38.421-14.613-53.035,0L250.383,174.203c-3.008,2.987-7.637,3.947-12.117,2.325 c-20.416-7.232-40.32-8.725-58.005-5.12l-58.517-58.517c-7.509-7.509-19.392-8.363-27.883-1.984l-85.333,64 c-9.045,6.805-11.221,19.477-4.949,28.907l37.163,55.744c-2.667,2.197-5.589,4.011-8.085,6.507 C-16.667,315.387-8.966,403.365,49.829,462.16c27.883,27.904,63.189,45.333,99.392,49.067c4.907,0.512,9.749,0.768,14.528,0.768 c32.064,0,60.821-11.371,82.155-32.683c22.613-22.613,33.92-53.675,32.533-87.68c16.32-2.752,30.72-9.899,41.856-21.013 c22.912-22.933,28.565-59.157,15.147-96.896c-1.6-4.459-0.683-9.109,2.347-12.139L500.965,98.363z M120.357,233.552 c-14.848-0.597-28.8,1.621-41.92,5.632l-28.181-42.24l54.4-40.811l36.181,36.181C130.042,203.344,123.045,217.467,120.357,233.552 z"/> </g> </g> </g>
</svg>